
<svg width="118px" height="31px" viewBox="0 0 118 31" version="1.1" xmlns="http://www.w3.org/2000/svg" xmlns:xlink="http://www.w3.org/1999/xlink">
    <!-- Generator: Sketch 51.2 (57519) - http://www.bohemiancoding.com/sketch -->
    <desc>Created with Sketch.</desc>
    <defs>
        <polygon id="path-1" points="0.0965927203 0.152551449 19.1811713 0.152551449 19.1811713 22.6884058 0.0965927203 22.6884058"></polygon>
        <polygon id="path-3" points="0 30.7901884 117.868437 30.7901884 117.868437 0 0 0"></polygon>
    </defs>
    <g id="Page-1" stroke="none" stroke-width="1" fill="none" fill-rule="evenodd" opacity="0.5">
        <g id="Pixura-UI-update-november7" transform="translate(-118.000000, -5014.000000)">
            <g id="Footer" transform="translate(0.000000, 4864.000000)">
                <g id="Group-15" transform="translate(118.000000, 150.000000)">
                    <path d="M17.861018,9.43889348 C17.861018,5.91073406 15.3755582,3.79487174 11.5593207,3.79487174 L4.04009847,3.79487174 L4.04009847,15.1700746 L11.2928034,15.1700746 C15.4200908,15.1700746 17.861018,13.1431688 17.861018,9.43889348 M22.0778226,9.43889348 C22.0778226,15.3482123 18.1273092,18.9204007 11.7365467,18.9204007 L4.04009847,18.9204007 L4.04009847,30.3041399 L6.7816092e-05,30.3041399 L6.7816092e-05,0.0449949275 L12.0028379,0.0449949275 C18.2156962,0.0449949275 22.0778226,3.97031377 22.0778226,9.43889348" id="Fill-1" fill="#FEFEFE"></path>
                    <g id="Group-5" transform="translate(60.808429, 8.101783)">
                        <mask id="mask-2" fill="white">
                            <use xlink:href="#path-1"></use>
                        </mask>
                        <g id="Clip-4"></g>
                        <path d="M0.0965927203,13.3383341 L0.0965927203,0.152551449 L4.26954291,0.152551449 L4.26954291,12.498863 C4.26954291,16.8646964 6.48735517,18.9363051 9.63854291,18.9363051 C12.3459874,18.9363051 15.007995,17.1731239 15.007995,12.7192326 L15.007995,0.152551449 L19.1811713,0.152551449 L19.1811713,22.2023123 L16.0286272,22.2023123 L15.4076579,19.4242181 L15.0525276,19.4242181 C14.1207345,20.7911384 12.3012287,22.6884283 8.30708697,22.6884283 C3.69174981,22.6884283 0.0965927203,19.4680225 0.0965927203,13.3383341" id="Fill-3" fill="#FEFEFE" mask="url(#mask-2)"></path>
                    </g>
                    <path d="M97.0590464,7.81323551 L97.0590464,11.8270616 C96.7482226,11.7390036 95.9050425,11.6509457 95.2395406,11.6509457 C92.1331115,11.6509457 89.1609582,13.7225543 89.1609582,18.8822572 L89.1609582,30.3041848 L84.9864257,30.3041848 L84.9864257,8.25442391 L88.1387437,8.25442391 L88.7603912,11.3413949 L89.1155215,11.3413949 C90.2690732,9.66559783 92.1331115,7.81323551 95.6387513,7.81323551 L97.0590464,7.81323551 Z" id="Fill-6" fill="#FEFEFE"></path>
                    <mask id="mask-4" fill="white">
                        <use xlink:href="#path-3"></use>
                    </mask>
                    <g id="Clip-9"></g>
                    <polygon id="Fill-8" fill="#FEFEFE" mask="url(#mask-4)" points="26.1039962 30.3040725 30.2798851 30.3040725 30.2798851 8.25431159 26.1039962 8.25431159"></polygon>
                    <polygon id="Fill-10" fill="#FEFEFE" mask="url(#mask-4)" points="37.1897119 8.04742029 34.3642674 10.8551667 42.8410529 19.2790797 34.3642674 27.7027681 37.1897119 30.5105145 48.4921678 19.2790797"></polygon>
                    <polygon id="Fill-11" fill="#FEFEFE" mask="url(#mask-4)" points="56.9689533 10.8551667 54.1432828 8.04742029 48.4921678 13.6631377 51.3178383 16.4711087"></polygon>
                    <polygon id="Fill-12" fill="#FEFEFE" mask="url(#mask-4)" points="51.3178383 22.0868261 48.4921678 24.8947971 54.1439609 30.5111884 56.9696314 27.7032174"></polygon>
                    <polygon id="Fill-13" fill="#FEFEFE" mask="url(#mask-4)" points="26.1039962 4.14950725 30.2798851 4.14950725 30.2798851 -0.000224637681 26.1039962 -0.000224637681"></polygon>
                    <path d="M107.1001,27.23815 C104.928177,27.23815 103.254702,25.7094906 103.254702,24.0903022 C103.254702,22.1568457 104.928177,20.8532732 106.738641,20.5832587 L113.615644,19.5946283 L113.615644,20.8530486 C113.615644,25.5744833 110.584717,27.23815 107.1001,27.23815 M108.593411,7.81328043 C103.886974,7.81328043 99.3629625,11.2785413 99.3629625,15.3222442 L103.435319,15.3680703 C103.707035,12.8498819 105.697664,11.4104036 108.683154,11.4104036 C111.987154,11.4104036 113.615644,12.8941355 113.615644,15.0079761 C113.615644,15.7719688 113.253054,16.4467804 111.941491,16.6264906 L105.832844,17.4807877 C102.077641,18.0208167 98.9106291,20.4487007 98.9106291,24.3151645 C98.9106291,27.7328022 102.077641,30.790121 106.511231,30.790121 C110.126733,30.790121 112.482211,29.0055993 113.528388,27.5259109 L113.933928,27.5259109 L114.519407,30.3040051 L117.868618,30.3040051 L117.868618,26.5640123 L117.868618,15.7270413 C117.868618,11.5002587 115.109407,7.81328043 108.593411,7.81328043" id="Fill-14" fill="#FEFEFE" mask="url(#mask-4)"></path>
                </g>
            </g>
        </g>
    </g>
</svg>