
<svg width="60px" height="60px" viewBox="0 0 60 60" version="1.1" xmlns="http://www.w3.org/2000/svg" xmlns:xlink="http://www.w3.org/1999/xlink">
    <!-- Generator: Sketch 51.2 (57519) - http://www.bohemiancoding.com/sketch -->
    <desc>Created with Sketch.</desc>
    <defs>
        <polygon id="path-1" points="5.08561025e-05 0.208787879 59.599427 0.208787879 59.599427 59.6969197 5.08561025e-05 59.6969197"></polygon>
    </defs>
    <g id="Page-1" stroke="none" stroke-width="1" fill="none" fill-rule="evenodd" opacity="0.6">
        <g id="Pixura-UI-update-november7" transform="translate(-170.000000, -1869.000000)">
            <g id="Partners" transform="translate(0.000000, 1699.000000)">
                <g id="Group-16" transform="translate(170.000000, 170.000000)">
                    <g id="Group-3" transform="translate(0.000000, 0.094242)">
                        <mask id="mask-2" fill="white">
                            <use xlink:href="#path-1"></use>
                        </mask>
                        <g id="Clip-2"></g>
                        <path d="M40.202011,15.6146061 C42.78648,16.9318788 43.9052938,19.1546061 44.1192248,21.9361212 C44.1192248,22.1373333 44.1195283,22.3385455 44.1198317,22.5400606 C43.7672248,24.8515758 42.7482455,26.7318788 40.5964938,27.8409697 C38.13128,29.1112727 35.4585076,29.1770303 32.7805766,29.0521818 C29.5115283,28.8997576 26.2825352,28.204 22.9852662,28.3582424 C21.0052662,28.4506667 21.0028386,28.3958182 21.2188938,26.4767273 C21.2188938,26.4764242 21.2191972,26.4764242 21.2191972,26.4764242 C21.3505903,25.963697 21.4822869,25.4512727 21.6139834,24.9388485 C21.5235559,24.4812727 21.5438869,24.0767273 21.6564662,23.7158182 C21.6940938,23.5958182 21.7420386,23.4803636 21.7993903,23.3697576 C21.7420386,23.4803636 21.6940938,23.5958182 21.6564662,23.7158182 C21.5438869,24.0767273 21.5235559,24.4812727 21.6139834,24.9388485 C22.1441076,24.0864242 22.5944248,23.1961212 22.9048524,22.2388485 C24.7003559,19.7791515 26.767749,17.6421818 29.6183421,16.374 C33.06248,14.8415758 36.579749,14.5564242 40.202011,15.6146061 M40.6071145,15.3630909 C40.4884662,15.4176364 40.369211,15.4891515 40.2502593,15.5797576 C40.369211,15.4891515 40.4884662,15.4176364 40.6071145,15.3630909 M40.9275559,15.2552121 C40.9063145,15.2597576 40.8847697,15.2655152 40.8635283,15.2709697 C40.8847697,15.2655152 40.9063145,15.2597576 40.9275559,15.2552121 M19.6846593,45.2764242 C19.7338179,45.2918788 19.7854041,45.2982424 19.8391145,45.2967273 C19.8879697,45.2952121 19.9386455,45.2864242 19.9908386,45.2730909 C19.9386455,45.2864242 19.8879697,45.2952121 19.8391145,45.2967273 C19.7854041,45.2982424 19.7338179,45.2921818 19.6846593,45.2764242 M14.2016524,36.6703636 C14.1691834,36.7173333 14.1564386,36.7670303 14.1676662,36.8200606 C14.1564386,36.7670303 14.1691834,36.7173333 14.2016524,36.6703636 M24.9500938,45.1946061 C25.1303421,45.2952121 25.2562731,45.1400606 25.3588386,44.874303 C25.1242731,44.7676364 24.9221766,44.8133939 24.7504248,45.0030909 C24.546811,45.0276364 24.3431972,45.0518788 24.1395834,45.0761212 C23.7860662,45.4197576 23.4313352,45.6118788 23.0753903,45.6555152 C22.9230593,45.673697 22.7704248,45.6652121 22.6174869,45.6294545 C22.7704248,45.6652121 22.9230593,45.673697 23.0753903,45.6555152 C23.4313352,45.6118788 23.7860662,45.4197576 24.1395834,45.0761212 C23.3257352,45.0812727 22.5121903,45.0873333 21.6980386,45.0924848 C21.2877766,45.0761212 20.877211,45.0594545 20.4666455,45.0427879 C20.3161352,45.1403636 20.1713903,45.2170303 20.0354455,45.2597576 C20.1713903,45.2170303 20.3161352,45.1403636 20.4666455,45.0427879 C20.12648,44.7212727 19.6955834,44.7385455 19.2731834,44.724 C18.8638317,44.4724848 18.4332386,44.2867273 17.9407421,44.2906667 L17.9398317,44.2906667 C16.6586731,43.3573333 15.57688,42.2427879 14.8009628,40.8500606 C14.7099283,40.4091515 14.6182869,39.9685455 14.5272524,39.5279394 C14.2520248,39.424303 14.0981766,39.2964242 14.2049903,39.1161212 C14.0981766,39.2964242 14.2523283,39.424303 14.5272524,39.5279394 C14.6692662,39.2870303 14.5536524,39.0985455 14.4034455,38.9167273 C14.3979834,38.3052121 14.3925214,37.6930909 14.3870593,37.0815758 C14.5591145,36.9000606 14.611611,36.7018788 14.4711145,36.4767273 C14.5330179,36.2700606 14.5946179,36.0633939 14.6562179,35.8570303 C14.4310593,35.564303 14.4234731,35.2655152 14.4750593,34.9600606 C14.4896248,34.8730909 14.509349,34.7855152 14.52968,34.6973333 C14.509349,34.7855152 14.4896248,34.8730909 14.4750593,34.9600606 C14.4234731,35.2655152 14.4310593,35.564303 14.6562179,35.8570303 C15.01368,35.1712727 15.3708386,34.4852121 15.7279972,33.7994545 C15.9049076,33.5958182 16.0815145,33.3918788 16.2584248,33.1879394 C17.0929076,32.8070303 17.8724662,32.3397576 18.5503697,31.7161212 L18.6204662,31.7458182 L18.680549,31.6988485 L18.680549,31.6985455 C20.6942317,31.2173333 22.7133766,30.8576364 24.80808,30.943697 C28.7853766,31.1073333 32.7214041,31.9452121 36.729349,31.6397576 C37.7492386,31.5621818 37.50648,32.3167273 37.371749,32.904 C36.3925214,37.1758182 34.182811,40.5588485 30.3457076,42.843697 C29.1270593,43.5691515 27.7612386,43.9349091 26.556549,44.6576364 C26.1435559,44.654303 25.7266179,44.6294545 25.3588386,44.8746061 C25.2562731,45.1400606 25.1303421,45.2952121 24.9500938,45.1946061 M59.4039145,12.864 C59.6002455,12.2403636 59.6330179,11.633697 59.2182041,11.073697 L59.122011,10.4361212 C58.7411834,8.32339394 58.0241352,6.38369697 56.3041903,4.95824242 C56.2116386,4.8570303 56.1193903,4.75612121 56.0268386,4.65521212 C53.7182041,1.59218182 50.4755559,0.292181818 46.8071697,0.262787879 C35.7325214,0.175212121 24.6569628,0.210060606 13.582011,0.255818182 C5.61649379,0.289151515 0.0354731034,5.86824242 0.0145351724,13.813697 C-0.0139889655,24.6715758 0.00148689655,35.5297576 0.0445765517,46.3876364 C0.0737075862,53.7903636 5.64380414,59.5179394 13.0315559,59.593697 C24.1562731,59.7073333 35.282811,59.7206667 46.4078317,59.6652121 C48.4882731,59.6552121 50.6460938,59.4085455 52.4215697,58.0306667 C52.5168524,58.0458182 52.5936248,58.0152121 52.6518869,57.9379394 C54.8348938,57.063697 56.3976524,55.5276364 57.4527421,53.4500606 C57.5310317,53.3915758 57.5604662,53.3146061 57.5404386,53.2188485 C58.8313076,51.7155152 59.3753903,49.9506667 59.3759972,47.9949091 C59.7188938,46.3879394 59.5899283,44.7749091 59.4357766,43.1615758 C59.6342317,42.6512727 59.6342317,42.1403636 59.4366869,41.6297576 C59.6278593,39.2109697 59.6290731,36.7924848 59.4330455,34.373697 C59.6345352,33.8633939 59.6342317,33.3524848 59.433349,32.8418788 C59.4791697,27.6303636 59.5422869,22.4191515 59.5595834,17.2073333 C59.5644386,15.7600606 59.7128248,14.3021818 59.4039145,12.864" id="Fill-1" fill="#B7C3D8" mask="url(#mask-2)"></path>
                    </g>
                </g>
            </g>
        </g>
    </g>
</svg>